<svg viewBox="0 0 24 24" fill="none" xmlns="http://www.w3.org/2000/svg"><g id="SVGRepo_bgCarrier" stroke-width="0"></g><g id="SVGRepo_tracerCarrier" stroke-linecap="round" stroke-linejoin="round"></g><g id="SVGRepo_iconCarrier"> <path d="M14.0549 2.25H9.94513C8.57755 2.24998 7.47522 2.24996 6.60825 2.36652C5.70814 2.48754 4.95027 2.74643 4.34835 3.34835C3.74644 3.95027 3.48754 4.70814 3.36653 5.60825C3.24997 6.47521 3.24998 7.57751 3.25 8.94508V15.8924C3.24997 17.179 3.24995 18.2296 3.36342 19.0061C3.47757 19.7871 3.74277 20.5614 4.51644 20.9374C5.29011 21.3135 6.06284 21.0436 6.74748 20.6508C7.42813 20.2604 8.25421 19.6113 9.26584 18.8164L9.99208 18.2458C10.5997 17.7683 11.0039 17.4523 11.3397 17.2481C11.6581 17.0543 11.8426 17.0078 12 17.0078C12.1574 17.0078 12.3419 17.0543 12.6603 17.2481C12.9961 17.4523 13.4003 17.7683 14.0079 18.2457L14.7342 18.8164C15.7458 19.6112 16.5719 20.2604 17.2525 20.6508C17.9372 21.0436 18.7099 21.3135 19.4836 20.9374C20.2572 20.5614 20.5224 19.7871 20.6366 19.0061C20.7501 18.2296 20.75 17.179 20.75 15.8924V8.94513C20.75 7.57754 20.75 6.47522 20.6335 5.60825C20.5125 4.70814 20.2536 3.95027 19.6517 3.34835C19.0497 2.74643 18.2919 2.48754 17.3918 2.36652C16.5248 2.24996 15.4225 2.24998 14.0549 2.25Z" fill="#ff0000"></path> </g></svg>